<svg width="120" height="120" viewBox="0 0 120 120" fill="none" xmlns="http://www.w3.org/2000/svg">
<path d="M96.3375 75.0008H23.6625C17.4429 75.0508 11.4577 72.6304 7.02119 68.2712C2.58464 63.912 0.0594138 57.9703 0 51.7508C0.0367234 46.4954 1.85578 41.408 5.15963 37.3207C8.46348 33.2335 13.0565 30.3884 18.1875 29.2508C18.5696 21.3273 22.001 13.8585 27.7636 8.40688C33.5262 2.95527 41.1737 -0.0567985 49.1062 0.000811413C53.3558 -0.00810376 57.5623 0.852241 61.4671 2.52895C65.3719 4.20567 68.8925 6.66331 71.8125 9.75081C74.8529 8.02385 78.2909 7.11912 81.7875 7.12581C87.0555 7.08085 92.1258 9.12926 95.8843 12.8209C99.6427 16.5125 101.782 21.5453 101.831 26.8133C101.834 27.584 101.79 28.3542 101.7 29.1196C107.322 30.3545 112.284 33.6338 115.624 38.3211C118.964 43.0085 120.443 48.7695 119.775 54.4861C119.107 60.2028 116.339 65.4673 112.008 69.2581C107.677 73.0489 102.092 75.0955 96.3375 75.0008ZM49.1062 3.75081C41.9731 3.68578 35.1053 6.45212 30.0087 11.4432C24.9121 16.4343 22.0028 23.2429 21.9187 30.3758V30.6946V32.2883L20.3437 32.5508C15.7465 33.2552 11.5509 35.575 8.50974 39.0938C5.4686 42.6126 3.78106 47.1 3.75 51.7508C3.8143 56.9742 5.94598 61.9592 9.67819 65.6141C13.4104 69.269 18.4389 71.2958 23.6625 71.2508H96.3375C101.314 71.3527 106.14 69.5445 109.823 66.1977C113.507 62.8509 115.769 58.2201 116.143 53.2571C116.518 48.2941 114.977 43.3762 111.837 39.5145C108.697 35.6528 104.197 33.1406 99.2625 32.4946L97.2562 32.1946L97.7062 30.2258C97.9504 29.1046 98.0761 27.9608 98.0812 26.8133C98.0318 22.5399 96.2879 18.4609 93.2327 15.4725C90.1775 12.4841 86.061 10.8308 81.7875 10.8758C78.4784 10.877 75.2457 11.8696 72.5062 13.7258L71.1187 14.6821L70.0312 13.3883C67.4541 10.3568 64.2467 7.92397 60.6327 6.25946C57.0187 4.59495 53.0851 3.73883 49.1062 3.75081ZM50.625 82.5008H46.875V108.751H50.625V82.5008ZM61.875 82.5008H58.125V120.001H61.875V82.5008ZM28.125 82.5008H24.375V108.751H28.125V82.5008ZM39.375 82.5008H35.625V120.001H39.375V82.5008ZM73.125 82.5008H69.375V108.751H73.125V82.5008ZM84.375 82.5008H80.625V120.001H84.375V82.5008ZM95.625 82.5008H91.875V108.751H95.625V82.5008Z" fill="#734675"/>
</svg>
