<svg width="120" height="120" viewBox="0 0 120 120" fill="none" xmlns="http://www.w3.org/2000/svg">
<path d="M58.6839 116.513C54.1129 116.518 49.5744 115.731 45.2634 114.187C45.0025 114.093 44.7624 113.948 44.5566 113.76C44.3508 113.572 44.1834 113.345 44.064 113.091C43.9447 112.838 43.8756 112.563 43.8608 112.282C43.846 112.001 43.8858 111.72 43.9778 111.455C44.0698 111.19 44.2123 110.945 44.3972 110.736C44.5821 110.527 44.8057 110.357 45.0552 110.236C45.3047 110.114 45.5753 110.044 45.8516 110.029C46.1278 110.014 46.4042 110.054 46.6651 110.148C52.111 112.096 57.9367 112.689 63.6544 111.877C69.3721 111.066 74.8152 108.873 79.5277 105.483C84.2403 102.092 88.085 97.6035 90.7399 92.3919C93.3948 87.1804 94.7825 81.3979 94.7867 75.529C94.7867 57.5564 66.0237 16.0606 58.6839 5.76463C51.3442 16.0606 22.5817 57.5564 22.5817 75.529C22.5817 76.0969 22.3597 76.6415 21.9647 77.0431C21.5697 77.4446 21.034 77.6702 20.4754 77.6702C19.9168 77.6702 19.381 77.4446 18.986 77.0431C18.591 76.6415 18.3691 76.0969 18.3691 75.529C18.3691 53.6166 55.4203 3.00249 56.9973 0.858622C57.1935 0.592082 57.448 0.375698 57.7408 0.226651C58.0336 0.0776042 58.3565 0 58.6839 0C59.0114 0 59.3343 0.0776042 59.6271 0.226651C59.9198 0.375698 60.1744 0.592082 60.3705 0.858622C61.9502 2.99982 98.9993 53.6166 98.9993 75.529C98.9871 86.3948 94.7357 96.8121 87.1777 104.495C79.6198 112.179 69.3724 116.5 58.6839 116.513Z" fill="#734675"/>
<path d="M29.6474 120C29.1547 120 28.6777 119.824 28.2992 119.504C27.9207 119.183 27.6648 118.738 27.5759 118.245C27.5516 118.114 24.9246 104.684 11.7874 98.1361C11.4337 97.9598 11.1357 97.6861 10.9273 97.3463C10.7189 97.0065 10.6084 96.614 10.6084 96.2136C10.6084 95.8131 10.7189 95.4206 10.9273 95.0808C11.1357 94.7409 11.4337 94.4673 11.7874 94.291C24.9968 87.7069 27.5516 74.3158 27.5759 74.1815C27.6648 73.6889 27.9207 73.2436 28.2992 72.923C28.6777 72.6024 29.1547 72.4268 29.6474 72.4268C30.1401 72.4267 30.6173 72.6022 30.9958 72.9228C31.3744 73.2434 31.6305 73.6888 31.7194 74.1815C31.7436 74.3115 34.3701 87.7422 47.5079 94.291C47.8616 94.4673 48.1596 94.7409 48.368 95.0808C48.5764 95.4206 48.6869 95.8131 48.6869 96.2136C48.6869 96.614 48.5764 97.0065 48.368 97.3463C48.1596 97.6861 47.8616 97.9598 47.5079 98.1361C34.298 104.72 31.7436 118.11 31.7194 118.245C31.6305 118.738 31.3744 119.183 30.9958 119.504C30.6173 119.824 30.1401 120 29.6474 120ZM17.0098 96.2133C22.5664 99.8489 26.9585 105.054 29.6474 111.19C32.3365 105.054 36.7285 99.8492 42.2849 96.2133C36.7281 92.5779 32.336 87.3727 29.6474 81.2362C26.9589 87.3729 22.567 92.5782 17.0098 96.2133Z" fill="#734675"/>
<path d="M107.286 60.3211C106.793 60.3212 106.316 60.1456 105.938 59.8249C105.559 59.5042 105.303 59.0586 105.214 58.5659C104.599 55.9796 103.433 53.5623 101.798 51.4848C100.163 49.4073 98.0984 47.7203 95.7512 46.5431C95.3975 46.3668 95.0996 46.0931 94.8911 45.7533C94.6827 45.4135 94.5723 45.021 94.5723 44.6205C94.5723 44.2201 94.6827 43.8276 94.8911 43.4878C95.0996 43.1479 95.3975 42.8743 95.7512 42.698C98.093 41.5132 100.153 39.8238 101.787 37.7475C103.421 35.6712 104.591 33.2578 105.214 30.6752C105.303 30.1825 105.559 29.737 105.937 29.4163C106.316 29.0956 106.793 28.9199 107.286 28.9199C107.779 28.9199 108.256 29.0956 108.634 29.4163C109.013 29.737 109.269 30.1825 109.358 30.6752C109.973 33.2614 111.139 35.6787 112.775 37.7562C114.41 39.8337 116.474 41.5207 118.821 42.698C119.175 42.8743 119.473 43.1479 119.681 43.4878C119.89 43.8276 120 44.2201 120 44.6205C120 45.021 119.89 45.4135 119.681 45.7533C119.473 46.0931 119.175 46.3668 118.821 46.5431C116.479 47.7279 114.42 49.4173 112.785 51.4936C111.151 53.5699 109.981 55.9833 109.358 58.5659C109.269 59.0586 109.013 59.504 108.634 59.8247C108.256 60.1454 107.779 60.3211 107.286 60.3211ZM100.771 44.6208C103.483 46.6124 105.711 49.2075 107.286 52.2081C108.861 49.2067 111.089 46.6107 113.802 44.6187C111.089 42.6264 108.861 40.0303 107.286 37.0287C105.712 40.0301 103.484 42.6262 100.772 44.6187L100.771 44.6208Z" fill="#734675"/>
<path d="M12.7149 33.1963H12.7065C12.2155 33.1953 11.7403 33.0197 11.3633 32.6999C10.9863 32.3801 10.7313 31.9362 10.6424 31.4453C10.0269 28.8595 8.86036 26.4427 7.22513 24.3656C5.5899 22.2885 3.5259 20.6018 1.17898 19.4247C0.825269 19.2484 0.527288 18.9747 0.318883 18.6349C0.110477 18.2951 0 17.9026 0 17.5021C0 17.1017 0.110477 16.7092 0.318883 16.3694C0.527288 16.0295 0.825269 15.7559 1.17898 15.5796C3.52757 14.4013 5.59273 12.7127 7.22832 10.6333C8.86392 8.55384 10.03 6.13438 10.644 3.54611C10.7361 3.05625 10.9933 2.61433 11.3713 2.29634C11.7492 1.97836 12.2243 1.80416 12.7149 1.80371H12.7239C13.2147 1.80533 13.6896 1.98118 14.0665 2.30088C14.4434 2.62057 14.6986 3.06404 14.788 3.55467C15.4025 6.1405 16.5681 8.55758 18.2025 10.6351C19.837 12.7126 21.9003 14.3998 24.2467 15.5775C24.6004 15.7538 24.8984 16.0274 25.1068 16.3672C25.3152 16.7071 25.4257 17.0995 25.4257 17.5C25.4257 17.9005 25.3152 18.2929 25.1068 18.6328C24.8984 18.9726 24.6004 19.2462 24.2467 19.4225C21.8987 20.6007 19.834 22.289 18.1989 24.3681C16.5638 26.4472 15.3981 28.8662 14.7843 31.4539C14.6921 31.9434 14.4352 32.3851 14.0575 32.703C13.6799 33.021 13.2052 33.1954 12.7149 33.1963ZM6.19818 17.4976C8.91125 19.4903 11.1403 22.0872 12.7149 25.0897C14.2889 22.0875 16.517 19.4907 19.2291 17.4976C16.5175 15.5059 14.2894 12.9108 12.7149 9.91027C11.1399 12.9112 8.91084 15.5064 6.19818 17.4976Z" fill="#734675"/>
</svg>
