<svg width="120" height="120" viewBox="0 0 120 120" fill="none" xmlns="http://www.w3.org/2000/svg">
<g clip-path="url(#clip0_164_144)">
<path d="M118.223 94.2326C117.241 94.2326 116.447 95.0273 116.447 96.0088V104.553H3.55315V85.2019C3.55315 84.2205 2.75756 83.4258 1.77703 83.4258C0.795592 83.4258 0 84.2205 0 85.2019V105.132C0 106.773 1.33484 108.107 2.97546 108.107H117.024C118.665 108.107 120 106.773 120 105.132V96.0088C120 95.0273 119.204 94.2326 118.223 94.2326Z" fill="#734675"/>
<path d="M114.966 20.5115C97.0137 34.1986 94.6544 36.6513 87.3054 39.0765C87.9619 31.0464 94.6772 28.959 94.9968 28.8647C95.937 28.5937 96.4827 27.6141 96.2153 26.672C95.948 25.7281 94.9665 25.1806 94.0217 25.4471C92.2273 25.9552 89.3553 27.5317 87.2496 30.0247V13.4958C87.2496 12.5143 86.454 11.7188 85.4725 11.7188C84.4911 11.7188 83.6964 12.5143 83.6964 13.4958V30.0247C81.7757 27.7505 78.9888 26.0321 76.9243 25.4471C75.9804 25.1806 74.998 25.7281 74.7307 26.672C74.4624 27.6159 75.0108 28.5983 75.9557 28.8665C76.0316 28.8876 83.5243 31.1206 83.6882 40.0634C79.0932 41.0595 76.407 40.8764 68.9299 40.8764C60.6334 40.8764 52.6034 43.4811 45.7094 48.4103C42.777 50.5059 39.6221 52.1401 36.3235 53.2891C36.7391 44.8498 43.7273 42.6837 44.0514 42.5884C44.9908 42.3184 45.5364 41.3387 45.2691 40.3967C45.0017 39.4528 44.0194 38.9053 43.0764 39.1717C41.2179 39.6981 38.3697 41.303 36.3042 43.7493V27.2195C36.3042 26.2381 35.5087 25.4434 34.5272 25.4434C33.5458 25.4434 32.7511 26.2381 32.7511 27.2195V43.7493C30.7278 41.3543 27.8887 39.7119 25.978 39.1717C25.0378 38.9053 24.0628 39.45 23.7918 40.3893C23.5199 41.3296 24.0637 42.312 25.0012 42.5884C25.3179 42.6809 32.7502 44.9716 32.7502 54.082C32.7502 54.1634 32.7493 54.2458 32.7483 54.3291C27.5189 55.5605 26.1218 55.2813 3.13384 55.2813C1.40625 55.2804 0 56.6866 0 58.4142V78.0953C0 79.0767 0.795592 79.8723 1.77703 79.8723C2.75756 79.8723 3.55315 79.0767 3.55315 78.0953V73.3391C25.4251 73.3391 28.7118 73.8253 35.8794 71.6674C36.8188 71.3845 37.3516 70.3939 37.0687 69.4545C36.7858 68.5143 35.7952 67.9824 34.855 68.2653C28.4912 70.1806 26.2152 69.786 3.55315 69.786V58.8335H24.5553C32.8509 58.8335 40.881 56.2289 47.7758 51.2997C54.0636 46.8044 61.3787 44.4286 68.9299 44.4286C77.0726 44.4286 88.3262 45.4623 100.623 35.9152L116.447 23.8513V33.8882L98.4565 47.6046C91.9041 52.6922 84.1688 55.3811 76.0875 55.3811C68.0071 55.3811 57.5765 54.4317 45.7094 62.9149C44.2492 63.9586 42.7065 64.9035 41.1263 65.721C39.4775 66.5752 40.0945 69.0764 41.9448 69.0764C43.0105 69.0764 46.9225 66.4159 47.7758 65.8053C58.5762 58.0846 67.9128 58.9342 76.0875 58.9342C84.9653 58.9342 93.4541 55.9872 100.623 50.4208L116.447 38.356V88.9021C116.447 89.8836 117.242 90.6792 118.224 90.6792C119.205 90.6792 120 89.8836 120 88.9021V23.0035C120 20.419 117.025 18.9386 114.966 20.5115Z" fill="#734675"/>
<path d="M108.404 61.5276C108.404 63.0538 107.166 64.2907 105.64 64.2907C104.114 64.2907 102.876 63.0538 102.876 61.5276C102.876 60.0005 104.114 58.7637 105.64 58.7637C107.166 58.7637 108.404 60.0005 108.404 61.5276Z" fill="#734675"/>
<path d="M96.401 78.5833C96.401 80.1095 95.1632 81.3473 93.637 81.3473C92.1108 81.3473 90.873 80.1095 90.873 78.5833C90.873 77.0571 92.1108 75.8193 93.637 75.8193C95.1632 75.8193 96.401 77.0571 96.401 78.5833Z" fill="#734675"/>
<path d="M80.4509 71.5628C80.4509 73.089 79.214 74.3268 77.6869 74.3268C76.1607 74.3268 74.9238 73.089 74.9238 71.5628C74.9238 70.0366 76.1607 68.7988 77.6869 68.7988C79.214 68.7988 80.4509 70.0366 80.4509 71.5628Z" fill="#734675"/>
<path d="M68.6852 91.3821C68.6852 92.9083 67.4484 94.1461 65.9222 94.1461C64.3951 94.1461 63.1582 92.9083 63.1582 91.3821C63.1582 89.856 64.3951 88.6182 65.9222 88.6182C67.4484 88.6182 68.6852 89.856 68.6852 91.3821Z" fill="#734675"/>
<path d="M24.2302 82.2191C24.2302 83.7462 22.9933 84.9831 21.4662 84.9831C19.94 84.9831 18.7031 83.7462 18.7031 82.2191C18.7031 80.6929 19.94 79.4561 21.4662 79.4561C22.9933 79.4561 24.2302 80.6929 24.2302 82.2191Z" fill="#734675"/>
<path d="M39.3122 97.7815C39.3122 99.3077 38.0753 100.546 36.5491 100.546C35.022 100.546 33.7852 99.3077 33.7852 97.7815C33.7852 96.2554 35.022 95.0176 36.5491 95.0176C38.0753 95.0176 39.3122 96.2554 39.3122 97.7815Z" fill="#734675"/>
<path d="M49.6559 79.4554C49.6559 80.9816 48.4181 82.2184 46.8919 82.2184C45.3657 82.2184 44.1279 80.9816 44.1279 79.4554C44.1279 77.9283 45.3657 76.6914 46.8919 76.6914C48.4181 76.6914 49.6559 77.9283 49.6559 79.4554Z" fill="#734675"/>
<path d="M15.9391 95.0179C15.9391 96.5441 14.7023 97.7818 13.1752 97.7818C11.649 97.7818 10.4121 96.5441 10.4121 95.0179C10.4121 93.4917 11.649 92.2539 13.1752 92.2539C14.7023 92.2539 15.9391 93.4917 15.9391 95.0179Z" fill="#734675"/>
<path d="M107.139 96.9095C107.139 98.4357 105.902 99.6735 104.376 99.6735C102.85 99.6735 101.612 98.4357 101.612 96.9095C101.612 95.3833 102.85 94.1455 104.376 94.1455C105.902 94.1455 107.139 95.3833 107.139 96.9095Z" fill="#734675"/>
</g>
<defs>
<clipPath id="clip0_164_144">
<rect width="120" height="120" fill="white"/>
</clipPath>
</defs>
</svg>
