<svg width="120" height="121" viewBox="0 0 120 121" fill="none" xmlns="http://www.w3.org/2000/svg">
<path d="M70.7137 47.1426C50.6266 47.1426 34.2852 63.484 34.2852 83.5711C34.2852 103.658 50.6266 120 70.7137 120C90.8009 120 107.142 103.658 107.142 83.5711C107.142 63.484 90.8009 47.1426 70.7137 47.1426ZM70.7137 115.714C52.9902 115.714 38.5709 101.295 38.5709 83.5711C38.5709 65.8476 52.9902 51.4283 70.7137 51.4283C88.4373 51.4283 102.857 65.8476 102.857 83.5711C102.857 101.295 88.4373 115.714 70.7137 115.714Z" fill="#734675"/>
<path d="M55.7143 27.8571C55.7143 12.4971 43.2193 0 27.8593 0C12.4971 0 0 12.4971 0 27.8571C0 43.2171 12.4971 55.7143 27.8593 55.7143C43.2193 55.7143 55.7143 43.2171 55.7143 27.8571ZM27.8593 51.4286C14.8607 51.4286 4.28571 40.8536 4.28571 27.8571C4.28571 14.8607 14.8607 4.28571 27.8593 4.28571C40.8536 4.28571 51.4286 14.8607 51.4286 27.8571C51.4286 40.8536 40.8536 51.4286 27.8593 51.4286Z" fill="#734675"/>
<path d="M96.4289 0C83.4324 0 72.8574 10.575 72.8574 23.5714C72.8574 36.5679 83.4324 47.1429 96.4289 47.1429C109.425 47.1429 120 36.5679 120 23.5714C120 10.575 109.425 0 96.4289 0ZM96.4289 42.8571C85.7938 42.8571 77.1431 34.2043 77.1431 23.5714C77.1431 12.9386 85.7938 4.28571 96.4289 4.28571C107.064 4.28571 115.715 12.9386 115.715 23.5714C115.715 34.2043 107.064 42.8571 96.4289 42.8571Z" fill="#734675"/>
<path d="M94.2849 30.0003H89.1806L96.2006 15.9581C96.9163 14.531 95.8685 12.8574 94.2849 12.8574H85.7135C82.8763 12.8574 82.8785 17.1431 85.7135 17.1431H90.8177L83.7977 31.1853C83.082 32.6124 84.1299 34.286 85.7135 34.286H94.2849C97.122 34.286 97.1199 30.0003 94.2849 30.0003Z" fill="#734675"/>
<path d="M105.001 19.2855C104.011 19.2855 103.083 19.5297 102.243 19.9305C100.904 18.5633 98.5723 19.5126 98.5723 21.4283V25.714V32.1426C98.5723 34.9776 102.858 34.9797 102.858 32.1426V25.714C102.858 24.5333 103.818 23.5712 105.001 23.5712C106.184 23.5712 107.144 24.5333 107.144 25.714V32.1426C107.144 34.9776 111.429 34.9797 111.429 32.1426V25.714C111.429 22.1697 108.545 19.2855 105.001 19.2855Z" fill="#734675"/>
<path d="M18.2148 19.2857C19.987 19.2857 21.4291 20.7279 21.4291 22.5C21.4291 23.6829 22.387 24.6429 23.572 24.6429C24.757 24.6429 25.7148 23.6829 25.7148 22.5C25.7148 18.3643 22.3506 15 18.2148 15C14.0791 15 10.7148 18.3643 10.7148 22.5V33.2143C10.7148 37.35 14.0791 40.7143 18.2148 40.7143C22.3506 40.7143 25.7148 37.35 25.7148 33.2143C25.7148 32.0314 24.757 31.0714 23.572 31.0714C22.387 31.0714 21.4291 32.0314 21.4291 33.2143C21.4291 34.9864 19.987 36.4286 18.2148 36.4286C16.4427 36.4286 15.0006 34.9864 15.0006 33.2143V22.5C15.0006 20.7279 16.4427 19.2857 18.2148 19.2857Z" fill="#734675"/>
<path d="M42.8574 36.4284V33.2141V31.0713V25.7141C42.8574 23.6484 40.1896 22.7313 38.9703 24.5399C37.8924 23.942 36.6731 23.5713 35.3574 23.5713C31.2217 23.5713 27.8574 26.9356 27.8574 31.0713V33.2141C27.8574 37.3499 31.2217 40.7141 35.3574 40.7141C36.9796 40.7141 38.4731 40.1827 39.701 39.3041C40.4853 40.1634 41.6039 40.7141 42.8574 40.7141C45.6946 40.7141 45.6924 36.4284 42.8574 36.4284ZM35.3574 36.4284C33.5853 36.4284 32.1431 34.9863 32.1431 33.2141V31.0713C32.1431 29.2991 33.5853 27.857 35.3574 27.857C37.1296 27.857 38.5717 29.2991 38.5717 31.0713V33.2141C38.5717 34.9863 37.1296 36.4284 35.3574 36.4284Z" fill="#734675"/>
<path d="M68.9719 67.3264L59.9997 79.8835L51.0276 67.3264C49.8233 65.6378 47.1426 66.4885 47.1426 68.5714V94.2857C47.1426 97.1207 51.4283 97.1228 51.4283 94.2857V75.2593L58.2576 84.8164C59.0611 85.9435 60.9404 85.9435 61.744 84.8164L68.5711 75.2593V94.2857C68.5711 97.1207 72.8569 97.1228 72.8569 94.2857V68.5714C72.8569 66.4885 70.1761 65.64 68.9719 67.3264Z" fill="#734675"/>
<path d="M88.2554 80.2547C87.1776 79.6568 85.9583 79.2861 84.6426 79.2861C80.5069 79.2861 77.1426 82.6504 77.1426 86.7861V88.929C77.1426 93.0647 80.5069 96.429 84.6426 96.429H87.8569V99.6433C87.8569 101.415 86.4147 102.858 84.6426 102.858C82.8704 102.858 81.4283 101.415 81.4283 99.6433C81.4283 96.8083 77.1426 96.8061 77.1426 99.6433C77.1426 103.779 80.5069 107.143 84.6426 107.143C88.7783 107.143 92.1426 103.779 92.1426 99.6433V94.2861V86.7861V81.429C92.1426 79.3633 89.4747 78.4461 88.2554 80.2547ZM81.4283 88.929V86.7861C81.4283 85.014 82.8704 83.5718 84.6426 83.5718C86.4147 83.5718 87.8569 85.014 87.8569 86.7861V92.1433H84.6426C82.8704 92.1433 81.4283 90.7011 81.4283 88.929Z" fill="#734675"/>
</svg>
